<svg width="36" height="33" viewBox="0 0 36 33" fill="none" xmlns="http://www.w3.org/2000/svg">
<path d="M10.5 4.125C11.3284 4.125 12 3.50939 12 2.75C12 1.99061 11.3284 1.375 10.5 1.375C9.67157 1.375 9 1.99061 9 2.75C9 3.50939 9.67157 4.125 10.5 4.125Z" fill="#D70404"/>
<path d="M4.5 9.625C5.32843 9.625 6 9.00939 6 8.25C6 7.49061 5.32843 6.875 4.5 6.875C3.67157 6.875 3 7.49061 3 8.25C3 9.00939 3.67157 9.625 4.5 9.625Z" fill="#D70404"/>
<path d="M18 2.75C18.8284 2.75 19.5 2.13439 19.5 1.375C19.5 0.615608 18.8284 0 18 0C17.1716 0 16.5 0.615608 16.5 1.375C16.5 2.13439 17.1716 2.75 18 2.75Z" fill="#D70404"/>
<path d="M25.5 4.125C26.3284 4.125 27 3.50939 27 2.75C27 1.99061 26.3284 1.375 25.5 1.375C24.6716 1.375 24 1.99061 24 2.75C24 3.50939 24.6716 4.125 25.5 4.125Z" fill="#D70404"/>
<path d="M31.5 9.625C32.3284 9.625 33 9.00939 33 8.25C33 7.49061 32.3284 6.875 31.5 6.875C30.6716 6.875 30 7.49061 30 8.25C30 9.00939 30.6716 9.625 31.5 9.625Z" fill="#D70404"/>
<path d="M26.25 33L26.0715 32.9601C23.3904 32.3004 21.0122 30.8673 19.2885 28.8727C17.5647 26.8781 16.587 24.4279 16.5 21.8845V16.0847L26.25 12.375L36 16.0847V21.8845C35.913 24.4279 34.9353 26.8781 33.2115 28.8727C31.4878 30.8673 29.1096 32.3004 26.4285 32.9601L26.25 33ZM19.5 17.6894V22.0206C19.5477 23.8624 20.2248 25.6439 21.4358 27.1142C22.6468 28.5844 24.3307 29.6692 26.25 30.2156C28.1693 29.6692 29.8532 28.5844 31.0642 27.1142C32.2752 25.6439 32.9523 23.8624 33 22.0206V17.6894L26.25 15.224L19.5 17.6894Z" fill="#D70404"/>
<path d="M18 33C18.8284 33 19.5 32.3844 19.5 31.625C19.5 30.8656 18.8284 30.25 18 30.25C17.1716 30.25 16.5 30.8656 16.5 31.625C16.5 32.3844 17.1716 33 18 33Z" fill="#D70404"/>
<path d="M15.6 14.3C15.9183 14.3 16.2235 14.1841 16.4486 13.9778C16.6736 13.7715 16.8 13.4917 16.8 13.2V11H19.2C19.8088 10.9976 20.3938 10.7832 20.8367 10.4003C21.2795 10.0174 21.547 9.49446 21.585 8.93751C22.9783 9.50119 24.1927 10.3797 25.1145 11.4909L27 10.7704L28.62 11.3891C27.6721 9.72999 26.2775 8.32031 24.5685 7.29376C22.8596 6.26721 20.8929 5.65781 18.855 5.52334C16.8171 5.38888 14.7755 5.73381 12.9237 6.52543C11.072 7.31704 9.47157 8.52911 8.27416 10.0467C7.07674 11.5643 6.32204 13.3371 6.08163 15.197C5.84121 17.0569 6.12304 18.9423 6.9004 20.6744C7.67776 22.4064 8.92488 23.9278 10.5235 25.0942C12.1221 26.2606 14.0193 27.0333 16.035 27.3391C15.61 26.3661 15.3129 25.3502 15.15 24.3128C13.087 23.6916 11.3411 22.4034 10.2384 20.6886C9.13563 18.9738 8.75144 16.9498 9.15755 14.9944L14.4 19.8V20.9C14.4049 21.4295 14.6179 21.9397 15 22.3369V16.5H13.2V14.3H15.6Z" fill="#D70404"/>
<path d="M4.5 26.125C5.32843 26.125 6 25.5094 6 24.75C6 23.9906 5.32843 23.375 4.5 23.375C3.67157 23.375 3 23.9906 3 24.75C3 25.5094 3.67157 26.125 4.5 26.125Z" fill="#D70404"/>
<path d="M10.5 31.625C11.3284 31.625 12 31.0094 12 30.25C12 29.4906 11.3284 28.875 10.5 28.875C9.67157 28.875 9 29.4906 9 30.25C9 31.0094 9.67157 31.625 10.5 31.625Z" fill="#D70404"/>
<path d="M1.5 17.875C2.32843 17.875 3 17.2594 3 16.5C3 15.7406 2.32843 15.125 1.5 15.125C0.671573 15.125 0 15.7406 0 16.5C0 17.2594 0.671573 17.875 1.5 17.875Z" fill="#D70404"/>
</svg>
