<svg width="24" height="20" viewBox="0 0 24 20" fill="none" xmlns="http://www.w3.org/2000/svg">
<path d="M12 19.4431H6.4186C2.34419 19.4431 0 17.236 0 13.3999V6.04311C0 2.20705 2.34419 0 6.4186 0H17.5814C21.6558 0 24 2.20705 24 6.04311V9.19604C24 9.62694 23.6205 9.98427 23.1628 9.98427C22.7051 9.98427 22.3256 9.62694 22.3256 9.19604V6.04311C22.3256 3.03732 20.774 1.57646 17.5814 1.57646H6.4186C3.22605 1.57646 1.67442 3.03732 1.67442 6.04311V13.3999C1.67442 16.4057 3.22605 17.8666 6.4186 17.8666H12C12.4577 17.8666 12.8372 18.2239 12.8372 18.6548C12.8372 19.0857 12.4577 19.4431 12 19.4431Z" fill="#D70404"/>
<path d="M11.9998 10.6358C11.0621 10.6358 10.1132 10.3625 9.38766 9.80552L5.8937 7.17808C5.53649 6.90483 5.46952 6.41088 5.75976 6.07457C6.04999 5.73826 6.57463 5.68571 6.93184 5.94846L10.4258 8.5759C11.2742 9.21699 12.7142 9.21699 13.5625 8.5759L17.0565 5.94846C17.4137 5.6752 17.9383 5.72775 18.2286 6.07457C18.5188 6.41088 18.463 6.91534 18.0946 7.17808L14.6007 9.80552C13.8862 10.3625 12.9374 10.6358 11.9998 10.6358Z" fill="#D70404"/>
<path d="M16.2641 20.0001C15.8399 20.0001 15.438 19.8529 15.1478 19.5797C14.8017 19.2539 14.6455 18.7809 14.7236 18.287L14.9357 16.8681C14.9915 16.5003 15.2259 16.0589 15.505 15.7962L19.4566 12.0757C19.9924 11.5712 20.5171 11.3085 21.0864 11.2559C21.7785 11.1929 22.4706 11.4661 23.118 12.0757C23.7655 12.6853 24.0557 13.3264 23.9887 13.9885C23.9329 14.514 23.6427 15.0184 23.118 15.5229L19.1664 19.2434C18.8873 19.5061 18.4185 19.7268 18.0278 19.7794L16.5208 19.9791C16.4315 19.9896 16.3534 20.0001 16.2641 20.0001ZM21.2762 12.8219C21.265 12.8219 21.2538 12.8219 21.2427 12.8219C21.0864 12.8324 20.8743 12.969 20.6399 13.1897L16.6883 16.9102C16.6548 16.9417 16.5989 17.0468 16.5989 17.0889L16.398 18.4026L17.7934 18.2134C17.838 18.2029 17.9496 18.1503 17.9831 18.1188L21.9348 14.3984C22.1692 14.1672 22.3143 13.978 22.3255 13.8308C22.3478 13.6206 22.1245 13.3684 21.9348 13.1897C21.7562 13.0216 21.4994 12.8219 21.2762 12.8219Z" fill="#D70404"/>
<path d="M21.9573 16.29C21.8792 16.29 21.801 16.2795 21.734 16.2585C20.2605 15.8696 19.0885 14.7661 18.6754 13.3788C18.5526 12.9585 18.8094 12.5275 19.2559 12.4014C19.7024 12.2858 20.1601 12.5276 20.2829 12.9479C20.5396 13.8097 21.2652 14.4929 22.1805 14.7346C22.627 14.8502 22.8838 15.2916 22.761 15.712C22.6605 16.0588 22.3257 16.29 21.9573 16.29Z" fill="#D70404"/>
</svg>
