<svg width="24" height="20" viewBox="0 0 24 20" fill="none" xmlns="http://www.w3.org/2000/svg">
<path d="M21.3 0C22.0161 0 22.7028 0.296224 23.2092 0.823505C23.7155 1.35079 24 2.06593 24 2.81162V17.1884C24 17.9341 23.7155 18.6492 23.2092 19.1765C22.7028 19.7038 22.0161 20 21.3 20H2.7C2.34543 20 1.99433 19.9273 1.66675 19.786C1.33918 19.6447 1.04153 19.4376 0.790812 19.1765C0.540093 18.9154 0.341213 18.6055 0.205525 18.2643C0.0698376 17.9232 0 17.5576 0 17.1884V2.81162C0 2.06593 0.284463 1.35079 0.790812 0.823505C1.29716 0.296224 1.98392 0 2.7 0H21.3ZM21.3 1.87441H2.7C2.46131 1.87441 2.23239 1.97316 2.0636 2.14892C1.89482 2.32468 1.8 2.56306 1.8 2.81162V17.1884C1.8 17.7057 2.2032 18.1256 2.7 18.1256H21.3C21.5387 18.1256 21.7676 18.0268 21.9364 17.8511C22.1052 17.6753 22.2 17.4369 22.2 17.1884V2.81162C22.2 2.56306 22.1052 2.32468 21.9364 2.14892C21.7676 1.97316 21.5387 1.87441 21.3 1.87441ZM9.3 10.6217C9.5387 10.6217 9.76761 10.7204 9.9364 10.8962C10.1052 11.0719 10.2 11.3103 10.2 11.5589V12.1749L10.1904 12.3099C9.9948 13.7007 8.8776 14.3718 7.2 14.3718C5.5224 14.3718 4.404 13.7007 4.2096 12.3099L4.2 12.1724V11.5589C4.2 11.3103 4.29482 11.0719 4.4636 10.8962C4.63239 10.7204 4.86131 10.6217 5.1 10.6217H9.3ZM13.5024 11.2415H18.9C19.128 11.2416 19.3475 11.3318 19.5142 11.4939C19.6808 11.656 19.7821 11.8779 19.7976 12.1148C19.8132 12.3517 19.7418 12.5859 19.5979 12.7701C19.454 12.9543 19.2483 13.0748 19.0224 13.1072L18.9 13.1159H13.5024C13.2744 13.1158 13.0549 13.0256 12.8883 12.8635C12.7216 12.7014 12.6203 12.4795 12.6048 12.2426C12.5892 12.0057 12.6606 11.7715 12.8045 11.5873C12.9484 11.4031 13.1541 11.2826 13.38 11.2502L13.5024 11.2415ZM7.2 5.62574C7.67739 5.62574 8.13523 5.82322 8.47279 6.17475C8.81036 6.52627 9 7.00303 9 7.50016C9 7.99728 8.81036 8.47405 8.47279 8.82557C8.13523 9.17709 7.67739 9.37457 7.2 9.37457C6.72261 9.37457 6.26477 9.17709 5.92721 8.82557C5.58964 8.47405 5.4 7.99728 5.4 7.50016C5.4 7.00303 5.58964 6.52627 5.92721 6.17475C6.26477 5.82322 6.72261 5.62574 7.2 5.62574ZM13.5024 6.87285H18.9C19.128 6.87293 19.3475 6.96313 19.5142 7.12524C19.6808 7.28735 19.7821 7.50928 19.7976 7.74618C19.8132 7.98308 19.7418 8.2173 19.5979 8.4015C19.454 8.5857 19.2483 8.70615 19.0224 8.73852L18.9 8.74727H13.5024C13.2744 8.74719 13.0549 8.65699 12.8883 8.49488C12.7216 8.33277 12.6203 8.11084 12.6048 7.87394C12.5892 7.63704 12.6606 7.40282 12.8045 7.21862C12.9484 7.03442 13.1541 6.91397 13.38 6.8816L13.5024 6.87285Z" fill="#D70404"/>
</svg>
